<?xml version="1.0" encoding="UTF-8" standalone="no"?>
<svg
   xmlns:dc="http://purl.org/dc/elements/1.1/"
   xmlns:cc="http://creativecommons.org/ns#"
   xmlns:rdf="http://www.w3.org/1999/02/22-rdf-syntax-ns#"
   xmlns:svg="http://www.w3.org/2000/svg"
   xmlns="http://www.w3.org/2000/svg"
   xmlns:sodipodi="http://sodipodi.sourceforge.net/DTD/sodipodi-0.dtd"
   xmlns:inkscape="http://www.inkscape.org/namespaces/inkscape"
   version="1.0"
   width="230.82452mm"
   height="194.37265mm"
   id="svg181"
   sodipodi:docname="map1.svg"
   inkscape:version="0.92.4 (5da689c313, 2019-01-14)">
  <metadata
     id="metadata185">
    <rdf:RDF>
      <cc:Work
         rdf:about="">
        <dc:format>image/svg+xml</dc:format>
        <dc:type
           rdf:resource="http://purl.org/dc/dcmitype/StillImage" />
        <dc:title></dc:title>
      </cc:Work>
    </rdf:RDF>
  </metadata>
  <sodipodi:namedview
     pagecolor="#ffffff"
     bordercolor="#666666"
     borderopacity="1"
     objecttolerance="10"
     gridtolerance="10"
     guidetolerance="10"
     inkscape:pageopacity="0"
     inkscape:pageshadow="2"
     inkscape:window-width="1853"
     inkscape:window-height="980"
     id="namedview183"
     showgrid="false"
     fit-margin-top="15"
     fit-margin-left="15"
     fit-margin-bottom="15"
     fit-margin-right="15"
     inkscape:zoom="0.36721753"
     inkscape:cx="435.87342"
     inkscape:cy="365.36323"
     inkscape:window-x="0"
     inkscape:window-y="0"
     inkscape:window-maximized="0"
     inkscape:current-layer="svg181" />
  <defs
     id="defs3">
    <pattern
       id="EMFhbasepattern"
       patternUnits="userSpaceOnUse"
       width="6"
       height="6"
       x="0"
       y="0" />
  </defs>
  <text
     xml:space="preserve"
     style="font-style:normal;font-variant:normal;font-weight:400;font-size:58.6875px;line-height:125%;font-family:Arial;text-align:start;letter-spacing:0px;word-spacing:0px;text-anchor:start;fill:#000000;fill-opacity:1;stroke:none"
     x="104.41001"
     y="98.702621"
     id="text11"><tspan
       sodipodi:role="line"
       x="104.41001"
       y="98.702621"
       id="tspan9"><tspan
         dx="0"
         dy="0"
         style="font-style:normal;font-variant:normal;font-weight:400;font-size:58.6875px;font-family:Arial;fill:#000000"
         id="tspan7">A</tspan></tspan></text>
  <text
     xml:space="preserve"
     style="font-style:normal;font-variant:normal;font-weight:400;font-size:39px;line-height:125%;font-family:'Times New Roman';text-align:start;letter-spacing:0px;word-spacing:0px;text-anchor:start;fill:#000000;fill-opacity:1;stroke:none"
     x="146.79561"
     y="113.26025"
     id="text17"><tspan
       sodipodi:role="line"
       x="146.79561"
       y="113.26025"
       id="tspan15"><tspan
         dx="0"
         dy="0"
         style="font-style:normal;font-variant:normal;font-weight:400;font-size:39px;font-family:'Times New Roman';fill:#000000"
         id="tspan13">ext</tspan></tspan></text>
  <path
     style="fill:#000000;fill-opacity:1;fill-rule:nonzero;stroke:#000000;stroke-width:0.0399864px;stroke-linecap:butt;stroke-linejoin:round;stroke-miterlimit:4;stroke-dasharray:none;stroke-opacity:1"
     d="m 56.712907,677.28407 v -10.67636 h 1.319551 v 10.67636 z m 0,-14.675 V 651.9327 h 1.319551 v 10.67637 z m 0,-14.67501 v -10.67637 h 1.319551 v 10.67637 z m 0,-14.67501 v -10.63639 h 1.319551 v 10.63639 z m 0,-14.63503 v -10.67636 h 1.319551 v 10.67636 z m 0,-14.675 v -10.67637 h 1.319551 v 10.67637 z m 0,-14.67501 v -10.63639 h 1.319551 v 10.63639 z m 0,-14.63503 v -10.67636 h 1.319551 v 10.67636 z m 0,-14.675 v -10.67637 h 1.319551 v 10.67637 z m 0,-14.67501 v -10.63639 h 1.319551 v 10.63639 z m 0,-14.63503 v -10.67636 h 1.319551 v 10.67636 z m 0,-14.675 v -10.67637 h 1.319551 v 10.67637 z m 0,-14.67501 v -10.67637 h 1.319551 v 10.67637 z m 0,-14.67501 v -10.63638 h 1.319551 v 10.63638 z m 0,-14.63502 v -10.67637 h 1.319551 v 10.67637 z m 0,-14.67501 v -10.67637 h 1.319551 v 10.67637 z m 0,-14.67501 v -10.63639 h 1.319551 v 10.63639 z m 0,-14.63503 v -10.67636 h 1.319551 v 10.67636 z m 0,-14.675 v -10.67637 h 1.319551 v 10.67637 z m 0,-14.67501 v -10.63639 h 1.319551 v 10.63639 z m 0,-14.63503 v -10.67636 h 1.319551 v 10.67636 z m 0,-14.675 v -10.67637 h 1.319551 v 10.67637 z m 0,-14.67501 v -10.67637 h 1.319551 v 10.67637 z m 0,-14.67501 v -10.63638 h 1.319551 v 10.63638 z m 0,-14.63502 V 314.6874 h 1.319551 v 10.67637 z m 0,-14.67501 v -10.67637 h 1.319551 v 10.67637 z m 0,-14.67501 v -10.63639 h 1.319551 v 10.63639 z m 0,-14.63503 v -10.67636 h 1.319551 v 10.67636 z m 0,-14.675 v -10.67637 h 1.319551 v 10.67637 z m 0,-14.67501 v -10.63639 h 1.319551 v 10.63639 z m 0,-14.63503 v -10.67636 h 1.319551 v 10.67636 z m 0,-14.675 v -10.67637 h 1.319551 v 10.67637 z m 0,-14.67501 V 197.3673 h 1.319551 v 10.67637 z m 0,-14.67501 v -9.91663 h 2.039306 v 1.31955 h -1.399524 l 0.679769,-0.67977 v 9.27685 z m 6.037946,-9.91663 h 10.676369 v 1.31955 H 62.750853 Z m 14.675009,0 h 10.636383 v 1.31955 H 77.425862 Z m 14.635023,0 h 10.676365 v 1.31955 H 92.060885 Z m 14.675005,0 h 10.67637 v 1.31955 h -10.67637 z m 14.67501,0 h 10.63638 v 1.31955 H 121.4109 Z m 14.63502,0 h 10.67637 v 1.31955 h -10.67637 z m 14.67501,0 h 10.67637 v 1.31955 h -10.67637 z m 14.67501,0 h 10.63638 v 1.31955 h -10.63638 z m 14.63502,0 h 10.67637 v 1.31955 h -10.67637 z m 14.67501,0 h 10.67637 v 1.31955 h -10.67637 z m 14.67501,0 h 10.63638 v 1.31955 h -10.63638 z m 14.63502,0 h 10.67637 v 1.31955 H 224.016 Z m 14.67501,0 h 10.63639 v 1.31955 h -10.63639 z m 14.63503,0 h 10.67636 v 1.31955 h -10.67636 z m 14.675,0 h 10.67637 v 1.31955 h -10.67637 z m 14.67501,0 h 10.63639 v 1.31955 h -10.63639 z m 14.63503,0 h 10.67636 v 1.31955 h -10.67636 z m 14.675,0 h 10.67637 v 1.31955 h -10.67637 z m 14.67501,0 h 10.63639 v 1.31955 h -10.63639 z m 14.63503,0 h 10.67636 v 1.31955 h -10.67636 z m 14.675,0 h 10.67637 v 1.31955 h -10.67637 z m 14.67501,0 h 10.63639 v 1.31955 h -10.63639 z m 14.63503,0 h 10.67636 v 1.31955 h -10.67636 z m 14.67501,0 h 10.63638 v 1.31955 h -10.63638 z m 14.63502,0 h 10.67637 v 1.31955 h -10.67637 z m 14.67501,0 h 10.67637 v 1.31955 H 429.2662 Z m 14.67501,0 h 10.63638 v 1.31955 h -10.63638 z m 14.63502,0 h 10.67637 v 1.31955 h -10.67637 z m 14.67501,0 h 10.67637 v 1.31955 h -10.67637 z m 14.67501,0 h 10.63638 v 1.31955 h -10.63638 z m 14.63502,0 h 10.67637 v 1.31955 h -10.67637 z m 14.67501,0 h 10.67637 v 1.31955 h -10.67637 z m 14.67501,0 h 10.63638 v 1.31955 h -10.63638 z m 14.63502,0 h 10.67637 v 1.31955 h -10.67637 z m 14.67501,0 h 10.63638 v 1.31955 h -10.63638 z m 14.63502,0 h 10.67637 v 1.31955 h -10.67637 z m 14.67501,0 h 10.67637 v 1.31955 h -10.67637 z m 14.67501,0 h 10.63638 v 1.31955 h -10.63638 z m 14.63502,0 h 10.67637 v 1.31955 h -10.67637 z m 14.67501,0 h 10.67637 v 1.31955 h -10.67637 z m 14.67501,0 h 10.63638 v 1.31955 H 649.1914 Z m 14.63502,0 h 10.67637 v 1.31955 h -10.67637 z m 14.67501,0 h 10.67637 v 1.31955 h -10.67637 z m 14.67501,0 h 10.63638 v 1.31955 h -10.63638 z m 14.63502,0 h 10.67637 v 1.31955 h -10.67637 z m 14.67501,0 h 10.63638 v 1.31955 h -10.63638 z m 14.63502,0 h 10.67637 v 1.31955 h -10.67637 z m 14.67501,0 h 10.67637 v 1.31955 H 751.7965 Z m 14.67501,0 h 10.63638 v 1.31955 h -10.63638 z m 14.63502,0 h 10.67637 v 1.31955 h -10.67637 z m 14.67501,0 h 10.67637 v 1.31955 h -10.67637 z m 14.67501,0 h 5.23822 v 6.71772 h -1.31955 v -6.07794 l 0.63978,0.67977 h -4.55845 z m 5.23822,10.71636 v 10.67636 h -1.31955 v -10.67636 z m 0,14.675 v 10.67637 h -1.31955 v -10.67637 z m 0,14.67501 v 10.63639 h -1.31955 V 223.5184 Z m 0,14.63503 v 10.67637 h -1.31955 v -10.67637 z m 0,14.67501 v 10.67636 h -1.31955 v -10.67636 z m 0,14.675 v 10.67637 h -1.31955 v -10.67637 z m 0,14.67501 v 10.63639 h -1.31955 v -10.63639 z m 0,14.63503 v 10.67636 h -1.31955 v -10.67636 z m 0,14.675 v 10.67637 h -1.31955 v -10.67637 z m 0,14.67501 v 10.63639 h -1.31955 v -10.63639 z m 0,14.63503 v 10.67636 h -1.31955 v -10.67636 z m 0,14.675 v 10.67637 h -1.31955 v -10.67637 z m 0,14.67501 v 10.63639 h -1.31955 v -10.63639 z m 0,14.63503 v 10.67636 h -1.31955 v -10.67636 z m 0,14.675 v 10.67637 h -1.31955 v -10.67637 z m 0,14.67501 v 10.67637 h -1.31955 v -10.67637 z m 0,14.67501 v 10.63639 h -1.31955 v -10.63639 z m 0,14.63503 v 10.67636 h -1.31955 v -10.67636 z m 0,14.675 v 10.67637 h -1.31955 v -10.67637 z m 0,14.67501 v 10.63639 h -1.31955 v -10.63639 z m 0,14.63503 v 10.67636 h -1.31955 v -10.67636 z m 0,14.675 v 10.67637 h -1.31955 v -10.67637 z m 0,14.67501 v 10.63639 h -1.31955 v -10.63639 z m 0,14.63503 v 10.67636 h -1.31955 v -10.67636 z m 0,14.675 v 10.67637 h -1.31955 v -10.67637 z m 0,14.67501 v 10.67637 h -1.31955 V 560.7637 Z m 0,14.67501 v 10.63639 h -1.31955 v -10.63639 z m 0,14.63503 v 10.67636 h -1.31955 v -10.67636 z m 0,14.675 v 10.67637 h -1.31955 v -10.67637 z m 0,14.67501 v 10.63639 h -1.31955 v -10.63639 z m 0,14.63503 v 10.67636 h -1.31955 v -10.67636 z m 0,14.675 v 10.67637 h -1.31955 v -10.67637 z m 0,14.67501 v 10.63639 h -1.31955 v -10.63639 z m -1.43951,14.51507 h -10.67637 v -1.31955 h 10.67637 z m -14.67501,0 h -10.67637 v -1.31955 h 10.67637 z m -14.67501,0 h -10.63638 v -1.31955 h 10.63638 z m -14.63502,0 h -10.67637 v -1.31955 h 10.67637 z m -14.67501,0 h -10.67637 v -1.31955 h 10.67637 z m -14.67501,0 h -10.63638 v -1.31955 h 10.63638 z m -14.63502,0 h -10.67637 v -1.31955 h 10.67637 z m -14.67501,0 H 700.9338 v -1.31955 h 10.67637 z m -14.67501,0 h -10.63638 v -1.31955 h 10.63638 z m -14.63502,0 h -10.67637 v -1.31955 h 10.67637 z m -14.67501,0 h -10.63638 v -1.31955 h 10.63638 z m -14.63502,0 h -10.67637 v -1.31955 h 10.67637 z m -14.67501,0 h -10.67637 v -1.31955 h 10.67637 z m -14.67501,0 h -10.63638 v -1.31955 h 10.63638 z m -14.63502,0 H 598.3287 v -1.31955 h 10.67637 z m -14.67501,0 h -10.67637 v -1.31955 h 10.67637 z m -14.67501,0 h -10.63638 v -1.31955 h 10.63638 z m -14.63502,0 h -10.67637 v -1.31955 h 10.67637 z m -14.67501,0 h -10.67637 v -1.31955 h 10.67637 z m -14.67501,0 h -10.63638 v -1.31955 h 10.63638 z m -14.63502,0 h -10.67637 v -1.31955 h 10.67637 z m -14.67501,0 h -10.63639 v -1.31955 h 10.63639 z m -14.63503,0 h -10.67637 v -1.31955 h 10.67637 z m -14.67501,0 h -10.67636 v -1.31955 h 10.67636 z m -14.675,0 h -10.63639 v -1.31955 h 10.63639 z m -14.63503,0 h -10.67637 v -1.31955 h 10.67637 z m -14.67501,0 h -10.67636 v -1.31955 h 10.67636 z m -14.675,0 h -10.63639 v -1.31955 h 10.63639 z m -14.63503,0 H 393.0785 v -1.31955 h 10.67637 z m -14.67501,0 H 378.4035 v -1.31955 h 10.67636 z m -14.675,0 h -10.63639 v -1.31955 h 10.63639 z m -14.63503,0 h -10.67637 v -1.31955 h 10.67637 z m -14.67501,0 h -10.63638 v -1.31955 h 10.63638 z m -14.63502,0 h -10.67637 v -1.31955 h 10.67637 z m -14.67501,0 h -10.67637 v -1.31955 h 10.67637 z m -14.67501,0 H 290.4734 v -1.31955 h 10.63638 z m -14.63502,0 h -10.67637 v -1.31955 h 10.67637 z m -14.67501,0 h -10.67637 v -1.31955 h 10.67637 z m -14.67501,0 h -10.63638 v -1.31955 h 10.63638 z m -14.63502,0 h -10.67637 v -1.31955 h 10.67637 z m -14.67501,0 h -10.67637 v -1.31955 h 10.67637 z m -14.63502,0 h -10.67637 v -1.31955 h 10.67637 z m -14.67501,0 h -10.67637 v -1.31955 h 10.67637 z m -14.67501,0 h -10.63638 v -1.31955 h 10.63638 z m -14.63502,0 h -10.67637 v -1.31955 h 10.67637 z m -14.67501,0 h -10.67637 v -1.31955 h 10.67637 z m -14.67501,0 h -10.63638 v -1.31955 h 10.63638 z m -14.63502,0 h -10.67637 v -1.31955 h 10.67637 z m -14.67501,0 H 99.858233 v -1.31955 H 110.5346 Z m -14.675007,0 H 85.22321 v -1.31955 h 10.636383 z m -14.635023,0 H 70.548201 v -1.31955 H 81.22457 Z m -14.675009,0 h -9.196872 v -1.31955 h 9.196872 z"
     id="path19"
     inkscape:connector-curvature="0" />
  <text
     xml:space="preserve"
     style="font-style:normal;font-variant:normal;font-weight:400;font-size:58.6875px;line-height:125%;font-family:'Times New Roman';text-align:start;letter-spacing:0px;word-spacing:0px;text-anchor:start;fill:#000000;fill-opacity:1;stroke:none"
     x="357.92484"
     y="98.702621"
     id="text25"><tspan
       sodipodi:role="line"
       x="357.92484"
       y="98.702621"
       id="tspan23"><tspan
         dx="0"
         dy="0"
         style="font-style:normal;font-variant:normal;font-weight:400;font-size:58.6875px;font-family:'Times New Roman';fill:#000000"
         id="tspan21">B</tspan></tspan></text>
  <text
     xml:space="preserve"
     style="font-style:normal;font-variant:normal;font-weight:400;font-size:39px;line-height:125%;font-family:'Times New Roman';text-align:start;letter-spacing:0px;word-spacing:0px;text-anchor:start;fill:#000000;fill-opacity:1;stroke:none"
     x="397.11148"
     y="113.26025"
     id="text31"><tspan
       sodipodi:role="line"
       x="397.11148"
       y="113.26025"
       id="tspan29"><tspan
         dx="0"
         dy="0"
         style="font-style:normal;font-variant:normal;font-weight:400;font-size:39px;font-family:'Times New Roman';fill:#000000"
         id="tspan27">ext</tspan></tspan></text>
  <text
     xml:space="preserve"
     style="font-style:normal;font-variant:normal;font-weight:400;font-size:58.6875px;line-height:125%;font-family:'Times New Roman';text-align:start;letter-spacing:0px;word-spacing:0px;text-anchor:start;fill:#000000;fill-opacity:1;stroke:none"
     x="596.46576"
     y="98.702621"
     id="text37"><tspan
       sodipodi:role="line"
       x="596.46576"
       y="98.702621"
       id="tspan35"><tspan
         dx="0"
         dy="0"
         style="font-style:normal;font-variant:normal;font-weight:400;font-size:58.6875px;font-family:'Times New Roman';fill:#000000"
         id="tspan33">P</tspan></tspan></text>
  <text
     xml:space="preserve"
     style="font-style:normal;font-variant:normal;font-weight:400;font-size:39px;line-height:125%;font-family:'Times New Roman';text-align:start;letter-spacing:0px;word-spacing:0px;text-anchor:start;fill:#000000;fill-opacity:1;stroke:none"
     x="629.09467"
     y="113.26025"
     id="text43"><tspan
       sodipodi:role="line"
       x="629.09467"
       y="113.26025"
       id="tspan41"><tspan
         dx="0"
         dy="0"
         style="font-style:normal;font-variant:normal;font-weight:400;font-size:39px;font-family:'Times New Roman';fill:#000000"
         id="tspan39">ext</tspan></tspan></text>
  <text
     xml:space="preserve"
     style="font-style:normal;font-variant:normal;font-weight:400;font-size:58.6875px;line-height:125%;font-family:'Times New Roman';text-align:start;letter-spacing:0px;word-spacing:0px;text-anchor:start;fill:#000000;fill-opacity:1;stroke:none"
     x="705.19879"
     y="98.702621"
     id="text49"><tspan
       sodipodi:role="line"
       x="705.19879"
       y="98.702621"
       id="tspan47"><tspan
         dx="0"
         dy="0"
         style="font-style:normal;font-variant:normal;font-weight:400;font-size:58.6875px;font-family:'Times New Roman';fill:#000000"
         id="tspan45">E</tspan></tspan></text>
  <text
     xml:space="preserve"
     style="font-style:normal;font-variant:normal;font-weight:400;font-size:39px;line-height:125%;font-family:'Times New Roman';text-align:start;letter-spacing:0px;word-spacing:0px;text-anchor:start;fill:#000000;fill-opacity:1;stroke:none"
     x="741.02655"
     y="113.26025"
     id="text55"><tspan
       sodipodi:role="line"
       x="741.02655"
       y="113.26025"
       id="tspan53"><tspan
         dx="0"
         dy="0"
         style="font-style:normal;font-variant:normal;font-weight:400;font-size:39px;font-family:'Times New Roman';fill:#000000"
         id="tspan51">ext</tspan></tspan></text>
  <text
     xml:space="preserve"
     style="font-style:normal;font-variant:normal;font-weight:400;font-size:58.6875px;line-height:125%;font-family:'Times New Roman';text-align:start;letter-spacing:0px;word-spacing:0px;text-anchor:start;fill:#000000;fill-opacity:1;stroke:none"
     x="366.31918"
     y="286.52853"
     id="text61"><tspan
       sodipodi:role="line"
       x="366.31918"
       y="286.52853"
       id="tspan59"><tspan
         dx="0"
         dy="0"
         style="font-style:normal;font-variant:normal;font-weight:400;font-size:58.6875px;font-family:'Times New Roman';fill:#000000"
         id="tspan57">B</tspan></tspan></text>
  <text
     xml:space="preserve"
     style="font-style:normal;font-variant:normal;font-weight:400;font-size:58.6875px;line-height:125%;font-family:'Times New Roman';text-align:start;letter-spacing:0px;word-spacing:0px;text-anchor:start;fill:#000000;fill-opacity:1;stroke:none"
     x="366.31906"
     y="462.76199"
     id="text67"><tspan
       sodipodi:role="line"
       x="366.31906"
       y="462.76199"
       id="tspan65"><tspan
         dx="0"
         dy="0"
         style="font-style:normal;font-variant:normal;font-weight:400;font-size:58.6875px;font-family:'Times New Roman';fill:#000000"
         id="tspan63">C</tspan></tspan></text>
  <text
     xml:space="preserve"
     style="font-style:normal;font-variant:normal;font-weight:400;font-size:58.6875px;line-height:125%;font-family:'Times New Roman';text-align:start;letter-spacing:0px;word-spacing:0px;text-anchor:start;fill:#000000;fill-opacity:1;stroke:none"
     x="364.71616"
     y="640.27515"
     id="text73"><tspan
       sodipodi:role="line"
       x="364.71616"
       y="640.27515"
       id="tspan71"><tspan
         dx="0"
         dy="0"
         style="font-style:normal;font-variant:normal;font-weight:400;font-size:58.6875px;font-family:'Times New Roman';fill:#000000"
         id="tspan69">D</tspan></tspan></text>
  <text
     xml:space="preserve"
     style="font-style:normal;font-variant:normal;font-weight:400;font-size:58.6875px;line-height:125%;font-family:'Times New Roman';text-align:start;letter-spacing:0px;word-spacing:0px;text-anchor:start;fill:#000000;fill-opacity:1;stroke:none"
     x="184.21223"
     y="462.76187"
     id="text79"><tspan
       sodipodi:role="line"
       x="184.21223"
       y="462.76187"
       id="tspan77"><tspan
         dx="0"
         dy="0"
         style="font-style:normal;font-variant:normal;font-weight:400;font-size:58.6875px;font-family:'Times New Roman';fill:#000000"
         id="tspan75">A</tspan></tspan></text>
  <text
     xml:space="preserve"
     style="font-style:normal;font-variant:normal;font-weight:400;font-size:58.6875px;line-height:125%;font-family:'Times New Roman';text-align:start;letter-spacing:0px;word-spacing:0px;text-anchor:start;fill:#000000;fill-opacity:1;stroke:none"
     x="555.04553"
     y="462.76199"
     id="text85"><tspan
       sodipodi:role="line"
       x="555.04553"
       y="462.76199"
       id="tspan83"><tspan
         dx="0"
         dy="0"
         style="font-style:normal;font-variant:normal;font-weight:400;font-size:58.6875px;font-family:'Times New Roman';fill:#000000"
         id="tspan81">P</tspan></tspan></text>
  <text
     xml:space="preserve"
     style="font-style:normal;font-variant:normal;font-weight:400;font-size:58.6875px;line-height:125%;font-family:'Times New Roman';text-align:start;letter-spacing:0px;word-spacing:0px;text-anchor:start;fill:#000000;fill-opacity:1;stroke:none"
     x="553.44934"
     y="640.27515"
     id="text91"><tspan
       sodipodi:role="line"
       x="553.44934"
       y="640.27515"
       id="tspan89"><tspan
         dx="0"
         dy="0"
         style="font-style:normal;font-variant:normal;font-weight:400;font-size:58.6875px;font-family:'Times New Roman';fill:#000000"
         id="tspan87">E</tspan></tspan></text>
  <path
     style="fill:#000000;fill-opacity:1;fill-rule:nonzero;stroke:#000000;stroke-width:0.0199932px;stroke-linecap:butt;stroke-linejoin:round;stroke-miterlimit:4;stroke-dasharray:none;stroke-opacity:1"
     d="m 387.92026,155.9014 0.37987,45.08467 c 0.02,1.4595 -1.15961,2.67909 -2.6391,2.67909 -1.4795,0.02 -2.67909,-1.15961 -2.69909,-2.63911 v 0 l -0.35987,-45.06467 c -0.02,-1.4795 1.1596,-2.67909 2.6391,-2.69908 1.4795,0 2.67909,1.1796 2.67909,2.6391 z m -10.63638,2.75906 7.77735,-26.73091 8.21721,26.61095 z m 13.65535,39.62653 -5.09826,26.71091 -5.55811,-26.61095 z"
     id="path93"
     inkscape:connector-curvature="0" />
  <path
     style="fill:#000000;fill-opacity:1;fill-rule:nonzero;stroke:#000000;stroke-width:0.0199932px;stroke-linecap:butt;stroke-linejoin:round;stroke-miterlimit:4;stroke-dasharray:none;stroke-opacity:1"
     d="m 383.16188,329.74228 v 48.74342 c 0,1.47949 1.19959,2.65909 2.67909,2.65909 1.4595,0 2.65909,-1.1796 2.65909,-2.65909 v -48.74342 c 0,-1.45951 -1.19959,-2.6591 -2.65909,-2.6591 -1.4795,0 -2.67909,1.19959 -2.67909,2.6591 z m 7.99728,2.67908 -5.31819,-26.67092 -5.33819,26.67092 z m -13.31547,43.40524 7.99728,26.65094 7.99728,-26.65094 z"
     id="path95"
     inkscape:connector-curvature="0" />
  <path
     style="fill:#000000;fill-opacity:1;fill-rule:nonzero;stroke:#000000;stroke-width:0.0199932px;stroke-linecap:butt;stroke-linejoin:round;stroke-miterlimit:4;stroke-dasharray:none;stroke-opacity:1"
     d="m 244.98887,440.18471 h 77.19375 c 1.47949,0 2.65909,1.1996 2.65909,2.67909 0,1.45951 -1.1796,2.6591 -2.65909,2.6591 h -77.19375 c -1.4595,0 -2.65909,-1.19959 -2.65909,-2.6591 0,-1.47949 1.19959,-2.67909 2.65909,-2.67909 z m 74.53465,-5.31819 26.65094,7.99728 -26.65094,7.99728 z"
     id="path97"
     inkscape:connector-curvature="0" />
  <path
     style="fill:#000000;fill-opacity:1;fill-rule:nonzero;stroke:#000000;stroke-width:0.0199932px;stroke-linecap:butt;stroke-linejoin:round;stroke-miterlimit:4;stroke-dasharray:none;stroke-opacity:1"
     d="M 630.85763,410.91467 V 164.37852 c 0,-1.4795 -1.19959,-2.67909 -2.67909,-2.67909 -1.4595,0 -2.65909,1.19959 -2.65909,2.67909 v 246.53615 c 0,1.4795 1.19959,2.67909 2.65909,2.67909 1.4795,0 2.67909,-1.19959 2.67909,-2.67909 z m 5.31819,-243.87706 -7.99728,-26.65093 -7.99728,26.65093 z"
     id="path99"
     inkscape:connector-curvature="0" />
  <path
     style="fill:none;stroke:#000000;stroke-width:5.33818436px;stroke-linecap:round;stroke-linejoin:round;stroke-miterlimit:4;stroke-dasharray:none;stroke-opacity:1"
     d="M 125.90937,136.02816 V 402.45754"
     id="path101"
     inkscape:connector-curvature="0" />
  <text
     xml:space="preserve"
     style="font-style:normal;font-variant:normal;font-weight:400;font-size:37.25px;line-height:125%;font-family:'Times New Roman';text-align:start;letter-spacing:0px;word-spacing:0px;text-anchor:start;fill:#4472c4;fill-opacity:1;stroke:none;"
     x="144.68427"
     y="169.80214"
     id="text107"><tspan
       sodipodi:role="line"
       x="144.68427"
       y="169.80214"
       id="tspan105"><tspan
         dx="0"
         dy="0"
         style="font-style:normal;font-variant:normal;font-weight:400;font-size:37.25px;font-family:'Times New Roman';fill:#4472c4;fill-opacity:1;"
         id="tspan103">R1</tspan></tspan></text>
  <text
     xml:space="preserve"
     style="font-style:normal;font-variant:normal;font-weight:400;font-size:37.25px;line-height:125%;font-family:'Times New Roman';text-align:start;letter-spacing:0px;word-spacing:0px;text-anchor:start;fill:#4472c4;fill-opacity:1;stroke:none;"
     x="319.85498"
     y="171.57986"
     id="text113"><tspan
       sodipodi:role="line"
       x="319.85498"
       y="171.57986"
       id="tspan111"><tspan
         dx="0"
         dy="0"
         style="font-style:normal;font-variant:normal;font-weight:400;font-size:37.25px;font-family:'Times New Roman';fill:#4472c4;fill-opacity:1;"
         id="tspan109">R2</tspan></tspan></text>
  <text
     xml:space="preserve"
     style="font-style:normal;font-variant:normal;font-weight:400;font-size:37.25px;line-height:125%;font-family:'Times New Roman';text-align:start;letter-spacing:0px;word-spacing:0px;text-anchor:start;fill:#4472c4;fill-opacity:1;stroke:none;"
     x="562.12244"
     y="170.85361"
     id="text119"><tspan
       sodipodi:role="line"
       x="562.12244"
       y="170.85361"
       id="tspan117"><tspan
         dx="0"
         dy="0"
         style="font-style:normal;font-variant:normal;font-weight:400;font-size:37.25px;font-family:'Times New Roman';fill:#4472c4;fill-opacity:1;"
         id="tspan115">R3</tspan></tspan></text>
  <text
     xml:space="preserve"
     style="font-style:normal;font-variant:normal;font-weight:400;font-size:37.25px;line-height:125%;font-family:'Times New Roman';text-align:start;letter-spacing:0px;word-spacing:0px;text-anchor:start;fill:#4472c4;fill-opacity:1;stroke:none;"
     x="757.03424"
     y="171.57986"
     id="text125"><tspan
       sodipodi:role="line"
       x="757.03424"
       y="171.57986"
       id="tspan123"><tspan
         dx="0"
         dy="0"
         style="font-style:normal;font-variant:normal;font-weight:400;font-size:37.25px;font-family:'Times New Roman';fill:#4472c4;fill-opacity:1;"
         id="tspan121">R4</tspan></tspan></text>
  <path
     style="fill:#000000;fill-opacity:1;fill-rule:nonzero;stroke:#000000;stroke-width:0.0399864px;stroke-linecap:butt;stroke-linejoin:round;stroke-miterlimit:4;stroke-dasharray:none;stroke-opacity:1"
     d="M 727.88463,490.10773 V 155.50154 c 0,-1.4795 -1.19959,-2.67909 -2.67909,-2.67909 -1.43951,0 -2.6391,1.19959 -2.6391,2.67909 v 334.60619 c 0,1.4795 1.19959,2.67909 2.6391,2.67909 1.4795,0 2.67909,-1.19959 2.67909,-2.67909 z m 5.3182,-331.9271 -7.99729,-26.67093 -7.99728,26.67093 z"
     id="path127"
     inkscape:connector-curvature="0" />
  <path
     style="fill:#000000;fill-opacity:1;fill-rule:nonzero;stroke:#000000;stroke-width:0.0199932px;stroke-linecap:butt;stroke-linejoin:round;stroke-miterlimit:4;stroke-dasharray:none;stroke-opacity:1"
     d="m 207.12175,400.87808 1.67943,-6.43781 1.95933,-6.4578 2.15927,-6.33785 2.39918,-6.21788 2.59912,-6.11792 2.81904,-5.99796 2.99898,-5.85801 3.2189,-5.73805 3.41884,-5.61809 3.61877,-5.47813 3.77872,-5.31819 3.97864,-5.17824 4.15859,-5.03829 4.31853,-4.87834 4.47848,-4.7184 4.65841,-4.53845 4.81836,-4.39851 4.95832,-4.21856 5.11826,-4.03863 5.25821,-3.85869 5.41815,-3.65875 5.53812,-3.47882 5.65808,-3.29888 5.77803,-3.07895 5.91799,-2.87902 6.03795,-2.67909 6.13791,-2.47916 8.71703,-2.85902 c 1.37953,-0.45985 2.89902,0.2999 3.35886,1.69942 0.45984,1.39952 -0.2999,2.89901 -1.69942,3.35886 l -8.37715,2.75906 -5.97797,2.37919 -5.85801,2.59912 -5.73805,2.79904 -5.63808,2.99898 -5.49813,3.17892 -5.37817,3.37885 -5.23822,3.57879 -5.11826,3.73872 -4.95831,3.91867 -4.83835,4.07861 -4.65842,4.25856 -4.51846,4.41849 -4.37851,4.57845 -4.19858,4.73838 -4.03862,4.87835 -3.8387,5.03828 -3.69874,5.15825 -3.49881,5.31819 -3.31887,5.43815 -3.11894,5.5781 -2.939,5.69806 -2.73907,5.81803 -2.51914,5.91798 -2.31921,6.05794 -2.11928,6.15791 -1.89936,6.23788 -1.67942,6.4578 c -0.37988,1.41952 -1.83938,2.27922 -3.2589,1.89935 -1.41951,-0.37987 -2.27922,-1.83937 -1.89935,-3.25889 z m 117.81993,-135.39395 27.81054,1.01965 -23.77192,14.45509 z"
     id="path129"
     inkscape:connector-curvature="0" />
  <path
     style="fill:#000000;fill-opacity:1;fill-rule:nonzero;stroke:#000000;stroke-width:0.0199932px;stroke-linecap:butt;stroke-linejoin:round;stroke-miterlimit:4;stroke-dasharray:none;stroke-opacity:1"
     d="m 207.8615,488.38832 1.69942,6.43781 1.93934,6.4578 2.15927,6.33785 2.39918,6.21788 2.59912,6.11792 2.81904,5.99796 3.01897,5.85801 3.21891,5.73805 3.41883,5.61809 3.59878,5.45814 3.77871,5.33819 3.97865,5.17823 4.15859,5.03829 4.31853,4.87834 4.47847,4.7184 4.65842,4.55845 4.81836,4.37851 4.97831,4.21856 5.09826,4.03863 5.27821,3.85869 5.37817,3.65875 5.55811,3.47882 5.65808,3.29888 5.79802,3.07895 5.91799,2.87902 6.01795,2.67909 6.13792,2.47916 8.71703,2.85902 c 1.37953,0.45985 2.89902,-0.29989 3.35886,-1.69942 0.45984,-1.39952 -0.2999,-2.89901 -1.69942,-3.35886 l -8.37715,-2.75906 -5.97797,-2.37919 -5.85801,-2.59911 -5.73805,-2.79905 -5.61809,-2.99898 -5.51812,-3.17892 -5.37817,-3.37885 -5.23822,-3.57878 -5.09826,-3.73873 -4.97831,-3.91867 -4.81836,-4.07861 -4.67841,-4.25855 -4.53846,-4.4185 -4.35852,-4.57844 -4.19857,-4.73839 -4.01863,-4.87834 -3.85869,-5.03829 -3.69874,-5.15825 -3.49881,-5.31819 -3.31887,-5.43815 -3.11894,-5.5781 -2.939,-5.69806 -2.71908,-5.81802 -2.53913,-5.91799 -2.31921,-6.05794 -2.11928,-6.15791 -1.89936,-6.23787 -1.67943,-6.45781 c -0.37987,-1.41952 -1.83937,-2.27922 -3.25889,-1.89935 -1.41952,0.37987 -2.27922,1.83937 -1.89935,3.25889 z m 117.83992,135.39395 27.79055,-1.03965 -23.77192,-14.43509 z"
     id="path131"
     inkscape:connector-curvature="0" />
  <path
     style="fill:#000000;fill-opacity:1;fill-rule:nonzero;stroke:#000000;stroke-width:0.0199932px;stroke-linecap:butt;stroke-linejoin:round;stroke-miterlimit:4;stroke-dasharray:none;stroke-opacity:1"
     d="m 419.76943,263.32487 6.55777,1.29955 6.59775,1.53948 6.4778,1.77939 6.39782,2.01932 6.27787,2.21924 6.1779,2.45917 6.07793,2.65909 5.93798,2.87902 5.83801,3.07896 5.69807,3.27888 5.5781,3.47882 5.43815,3.67875 5.2982,3.85868 5.13825,4.03863 4.9983,4.21857 4.83835,4.3985 4.69841,4.57844 4.49847,4.7184 4.35851,4.87834 4.17858,5.05828 3.99864,5.19823 3.8187,5.33818 3.63877,5.49813 3.41883,5.63809 3.2389,5.75804 3.03897,5.878 2.83903,6.01795 3.41884,8.65706 c 0.53982,1.37953 -0.11996,2.91901 -1.49949,3.47882 -1.35954,0.53981 -2.91901,-0.13996 -3.45882,-1.49949 l -3.29888,-8.35716 -2.73907,-5.83802 -2.939,-5.73805 -3.13893,-5.59809 -3.33887,-5.45815 -3.5188,-5.33818 -3.69874,-5.19823 -3.87868,-5.03829 -4.05862,-4.89833 -4.21857,-4.75838 -4.3985,-4.59844 -4.53846,-4.43849 -4.6984,-4.25855 -4.85835,-4.09861 -4.9983,-3.91866 -5.13825,-3.75873 -5.27821,-3.55879 -5.39816,-3.37885 -5.53812,-3.19891 -5.63808,-2.99898 -5.79803,-2.77905 -5.878,-2.59912 -5.99796,-2.37919 -6.11792,-2.17926 -6.1779,-1.95933 -6.31785,-1.71942 -6.37783,-1.51948 -6.57776,-1.29956 c -1.43951,-0.2799 -2.37919,-1.67943 -2.09929,-3.11894 0.27991,-1.4595 1.69943,-2.39918 3.13894,-2.09928 z m 142.79143,110.10255 0.53982,27.83053 -15.75464,-22.9322 z"
     id="path133"
     inkscape:connector-curvature="0" />
  <path
     style="fill:#000000;fill-opacity:1;fill-rule:nonzero;stroke:#000000;stroke-width:0.0199932px;stroke-linecap:butt;stroke-linejoin:round;stroke-miterlimit:4;stroke-dasharray:none;stroke-opacity:1"
     d="m 387.16052,582.09645 2.29921,-4.4185 2.51915,-4.37851 2.73907,-4.19857 2.919,-3.99864 3.09895,-3.8387 3.25889,-3.65875 3.39885,-3.45883 3.57878,-3.29887 3.71873,-3.07896 3.8387,-2.89901 3.93866,-2.69908 4.0986,-2.49915 4.17858,-2.27923 4.29854,-2.09928 4.37851,-1.87936 4.43849,-1.65944 4.53846,-1.4595 4.59843,-1.21959 4.65842,-1.01965 4.7184,-0.79973 4.73838,-0.55981 4.77838,-0.33988 4.81836,-0.1 4.81836,0.11996 4.83836,0.37987 4.81836,0.5998 4.81836,0.8597 2.43917,0.51983 2.39918,0.5798 2.39919,0.63978 2.35919,0.69976 2.39919,0.77974 2.3592,0.81972 2.35919,0.91969 2.33921,0.93968 2.3392,1.01965 2.31921,1.09963 3.81871,1.95933 3.71873,2.09929 3.63876,2.29921 3.51881,2.41918 3.41883,2.55913 3.27889,2.71908 3.17892,2.85902 3.03896,2.97899 2.91901,3.09895 3.19891,4.31853 c 0.8797,1.1796 0.61979,2.85903 -0.55981,3.73873 -1.1796,0.8597 -2.85902,0.61979 -3.71873,-0.55981 l -2.81904,-3.8387 -2.75907,-2.95899 -2.87902,-2.81904 -2.97898,-2.69908 -3.11894,-2.55913 -3.21891,-2.43917 -3.31887,-2.31922 -3.43883,-2.15926 -3.5388,-1.99932 -3.65875,-1.87936 -2.19925,-1.01965 -2.19925,-0.97967 -2.21925,-0.91969 -2.21925,-0.83971 -2.25923,-0.79973 -2.23924,-0.71976 -2.25923,-0.65977 -2.25923,-0.61979 -2.25923,-0.55981 -2.23924,-0.47984 -4.55845,-0.79973 -4.57844,-0.59979 -4.57844,-0.33989 -4.55845,-0.13995 -4.53846,0.1 -4.53846,0.31989 -4.47847,0.51982 -4.45849,0.73975 -4.41849,0.95967 -4.35852,1.1796 -4.27855,1.35954 -4.23856,1.57946 -4.13859,1.7594 -4.05862,1.95934 -3.95865,2.17926 -3.87868,2.35919 -3.73873,2.53914 -3.63876,2.73907 -3.49881,2.91901 -3.37885,3.07895 -3.2389,3.29888 -3.09895,3.43883 -2.919,3.63876 -2.75907,3.79871 -2.59911,3.93866 -2.41918,4.13859 -2.27922,4.4185 c -0.67977,1.31955 -2.29922,1.81938 -3.59878,1.13961 -1.29956,-0.67977 -1.81938,-2.27922 -1.13961,-3.57878 z m 169.44237,-23.51201 7.59741,26.7709 -21.07283,-18.17382 z"
     id="path135"
     inkscape:connector-curvature="0" />
  <path
     style="fill:#000000;fill-opacity:1;fill-rule:nonzero;stroke:#000000;stroke-width:0.0199932px;stroke-linecap:butt;stroke-linejoin:round;stroke-miterlimit:4;stroke-dasharray:none;stroke-opacity:1"
     d="m 386.42077,474.71297 2.25923,4.4185 2.53914,4.37851 2.71907,4.19857 2.89902,4.03863 3.07895,3.83869 3.25889,3.65876 3.39884,3.49881 3.55879,3.27888 3.69875,3.09895 3.8187,2.919 3.95865,2.69909 4.07861,2.51914 4.17858,2.29922 4.27855,2.09928 4.37851,1.89936 4.45848,1.67943 4.51846,1.4595 4.59844,1.25957 4.65842,1.01966 4.6984,0.79972 4.73839,0.5998 4.79837,0.33988 4.79836,0.11996 4.81836,-0.11996 4.83836,-0.33988 4.81836,-0.5998 4.81836,-0.83971 2.43917,-0.51982 2.39919,-0.55981 2.39918,-0.63979 2.37919,-0.69976 2.37919,-0.75974 2.37919,-0.81972 2.3592,-0.89969 2.3592,-0.93969 2.31921,-1.01965 2.31921,-1.07963 3.65876,-1.85937 3.59877,-2.01931 3.49881,-2.15927 3.39885,-2.29922 3.27888,-2.41917 3.19891,-2.55913 3.07896,-2.67909 2.95899,-2.79905 2.83903,-2.939 2.53914,-3.35886 c 0.8797,-1.1796 0.61979,-2.83903 -0.55981,-3.71873 -1.1796,-0.8797 -2.83903,-0.63979 -3.71874,0.53981 l -2.07929,2.83904 -2.69908,2.75906 -2.79905,2.6591 -2.89901,2.53913 -2.99898,2.43917 -3.13893,2.29922 -3.19892,2.17926 -3.29887,2.03931 -3.39885,1.89935 -3.49881,1.77939 -2.19925,1.01966 -2.21925,0.95967 -2.21924,0.91969 -2.21925,0.83971 -2.25923,0.77974 -2.25923,0.71975 -2.23924,0.65978 -2.27922,0.59979 -2.25923,0.55981 -2.23924,0.47984 -4.55845,0.79973 -4.57845,0.55981 -4.57844,0.33988 -4.55845,0.11996 -4.55845,-0.11996 -4.49847,-0.31989 -4.49847,-0.53981 -4.45848,-0.75975 -4.4185,-0.97966 -4.33852,-1.15961 -4.29854,-1.39952 -4.21857,-1.57947 -4.13859,-1.77939 -4.03862,-1.97933 -3.95866,-2.19925 -3.85869,-2.3592 -3.73872,-2.55913 -3.63877,-2.73907 -3.49881,-2.919 -3.35885,-3.11894 -3.2389,-3.29888 -3.07896,-3.43883 -2.89901,-3.63876 -2.75906,-3.8187 -2.57912,-3.95866 -2.39919,-4.13859 -2.27922,-4.4185 c -0.67977,-1.31955 -2.27923,-1.83937 -3.57879,-1.1596 -1.31955,0.67977 -1.83937,2.27922 -1.1596,3.57878 z m 167.40306,26.31105 8.43713,-26.51098 -21.65263,17.49405 z"
     id="path137"
     inkscape:connector-curvature="0" />
  <path
     style="fill:none;stroke:#000000;stroke-width:5.31819105px;stroke-linecap:round;stroke-linejoin:round;stroke-miterlimit:4;stroke-dasharray:none;stroke-opacity:1"
     d="M 598.12876,622.90257 C 669.4645,621.623 726.32516,562.843 725.20554,491.46727"
     id="path139"
     inkscape:connector-curvature="0" />
  <path
     style="fill:#000000;fill-opacity:1;fill-rule:nonzero;stroke:#000000;stroke-width:0.0199932px;stroke-linecap:butt;stroke-linejoin:round;stroke-miterlimit:4;stroke-dasharray:none;stroke-opacity:1"
     d="m 123.35024,403.15731 0.04,2.35919 0.17994,2.47916 0.2999,2.43917 0.41986,2.37919 0.53981,2.3592 0.63979,2.29922 0.73974,2.25923 0.85971,2.21925 0.95968,2.13927 1.07963,2.09928 1.1596,2.03931 1.23958,1.97933 1.35954,1.91934 1.41952,1.81939 1.51948,1.77939 1.59946,1.67943 1.67943,1.61945 1.7594,1.53947 1.81938,1.43951 1.87936,1.35954 1.97933,1.27957 2.01931,1.1596 2.0793,1.07964 2.13927,0.99966 2.21924,0.8797 c 0.23992,0.1 0.51983,0.15994 0.79973,0.17994 l 2.79905,0.19993 c 1.4795,0.1 2.73907,-0.99966 2.83903,-2.47916 0.11996,-1.4595 -0.99966,-2.73907 -2.45916,-2.83903 l -2.81904,-0.19994 0.79973,0.17994 -1.95934,-0.77973 -1.89935,-0.85971 -1.85937,-0.95967 -1.81938,-1.05964 -1.73941,-1.09963 -1.69942,-1.21958 -1.63944,-1.29956 -1.55947,-1.33955 -1.49949,-1.43951 -1.41952,-1.51948 -1.35954,-1.53948 -1.27957,-1.65943 -1.19959,-1.67943 -1.11962,-1.7594 -1.03964,-1.79939 -0.93968,-1.87936 -0.85971,-1.91935 -0.77974,-1.95933 -0.67977,-1.99932 -0.5798,-2.0593 -0.47983,-2.07929 -0.35988,-2.13928 -0.27991,-2.15926 -0.15994,-2.17926 -0.06,-2.3592 v 0 c -0.02,-1.4795 -1.23958,-2.6391 -2.71908,-2.61911 -1.4595,0.04 -2.6391,1.25957 -2.59911,2.71908 z m 32.30901,51.1626 27.0508,-6.51779 -26.1511,-9.45678 z"
     id="path141"
     inkscape:connector-curvature="0" />
  <text
     xml:space="preserve"
     style="font-style:normal;font-variant:normal;font-weight:400;font-size:37.25px;line-height:125%;font-family:'Times New Roman';text-align:start;letter-spacing:0px;word-spacing:0px;text-anchor:start;fill:#4472c4;fill-opacity:1;stroke:none;"
     x="235.35921"
     y="274.47479"
     id="text147"><tspan
       sodipodi:role="line"
       x="235.35921"
       y="274.47479"
       id="tspan145"><tspan
         dx="0"
         dy="0"
         style="font-style:normal;font-variant:normal;font-weight:400;font-size:37.25px;font-family:'Times New Roman';fill:#4472c4;fill-opacity:1;"
         id="tspan143">R5</tspan></tspan></text>
  <text
     xml:space="preserve"
     style="font-style:normal;font-variant:normal;font-weight:400;font-size:37.25px;line-height:125%;font-family:'Times New Roman';text-align:start;letter-spacing:0px;word-spacing:0px;text-anchor:start;fill:#4472c4;fill-opacity:1;stroke:none;"
     x="308.67844"
     y="485.97433"
     id="text153"><tspan
       sodipodi:role="line"
       x="308.67844"
       y="485.97433"
       id="tspan151"><tspan
         dx="0"
         dy="0"
         style="font-style:normal;font-variant:normal;font-weight:400;font-size:37.25px;font-family:'Times New Roman';fill:#4472c4;fill-opacity:1;"
         id="tspan149">R6</tspan></tspan></text>
  <text
     xml:space="preserve"
     style="font-style:normal;font-variant:normal;font-weight:400;font-size:37.25px;line-height:125%;font-family:'Times New Roman';text-align:start;letter-spacing:0px;word-spacing:0px;text-anchor:start;fill:#4472c4;fill-opacity:1;stroke:none;"
     x="257.23108"
     y="645.19891"
     id="text159"><tspan
       sodipodi:role="line"
       x="257.23108"
       y="645.19891"
       id="tspan157"><tspan
         dx="0"
         dy="0"
         style="font-style:normal;font-variant:normal;font-weight:400;font-size:37.25px;font-family:'Times New Roman';fill:#4472c4;fill-opacity:1;"
         id="tspan155">R7</tspan></tspan></text>
  <text
     xml:space="preserve"
     style="font-style:normal;font-variant:normal;font-weight:400;font-size:37.25px;line-height:125%;font-family:'Times New Roman';text-align:start;letter-spacing:0px;word-spacing:0px;text-anchor:start;fill:#4472c4;fill-opacity:1;stroke:none;"
     x="405.49124"
     y="403.34131"
     id="text165"><tspan
       sodipodi:role="line"
       x="405.49124"
       y="403.34131"
       id="tspan163"><tspan
         dx="0"
         dy="0"
         style="font-style:normal;font-variant:normal;font-weight:400;font-size:37.25px;font-family:'Times New Roman';fill:#4472c4;fill-opacity:1;"
         id="tspan161">R8</tspan></tspan></text>
  <text
     xml:space="preserve"
     style="font-style:normal;font-variant:normal;font-weight:400;font-size:37.25px;line-height:125%;font-family:'Times New Roman';text-align:start;letter-spacing:0px;word-spacing:0px;text-anchor:start;fill:#4472c4;fill-opacity:1;stroke:none;"
     x="424.88037"
     y="251.9174"
     id="text171"><tspan
       sodipodi:role="line"
       x="424.88037"
       y="251.9174"
       id="tspan169"><tspan
         dx="0"
         dy="0"
         style="font-style:normal;font-variant:normal;font-weight:400;font-size:37.25px;font-family:'Times New Roman';fill:#4472c4;fill-opacity:1;"
         id="tspan167">R9</tspan></tspan></text>
  <text
     xml:space="preserve"
     style="font-style:normal;font-variant:normal;font-weight:400;font-size:37.25px;line-height:125%;font-family:'Times New Roman';text-align:start;letter-spacing:0px;word-spacing:0px;text-anchor:start;fill:#4472c4;fill-opacity:1;stroke:none;"
     x="438.76959"
     y="498.2789"
     id="text177"><tspan
       sodipodi:role="line"
       x="438.76959"
       y="498.2789"
       id="tspan175"><tspan
         dx="0"
         dy="0"
         style="font-style:normal;font-variant:normal;font-weight:400;font-size:37.25px;font-family:'Times New Roman';fill:#4472c4;fill-opacity:1;"
         id="tspan173">R10</tspan></tspan></text>
  <path
     style="fill:none;stroke:#000000;stroke-width:5.33818436px;stroke-linecap:round;stroke-linejoin:round;stroke-miterlimit:4;stroke-dasharray:none;stroke-opacity:1"
     d="m 597.40901,442.38397 c 16.87426,-0.35988 30.42965,-13.97525 30.76953,-30.84951"
     id="path179"
     inkscape:connector-curvature="0" />
</svg>
