<?xml version="1.0" encoding="UTF-8" standalone="no"?>
<!-- Created with Inkscape (http://www.inkscape.org/) -->

<svg
   width="96.720001mm"
   height="102.94685mm"
   viewBox="0 0 96.720001 102.94685"
   version="1.1"
   id="svg1739"
   inkscape:version="1.1.2 (b8e25be833, 2022-02-05)"
   sodipodi:docname="logo.svg"
   xmlns:inkscape="http://www.inkscape.org/namespaces/inkscape"
   xmlns:sodipodi="http://sodipodi.sourceforge.net/DTD/sodipodi-0.dtd"
   xmlns="http://www.w3.org/2000/svg"
   xmlns:svg="http://www.w3.org/2000/svg">
  <sodipodi:namedview
     id="namedview1741"
     pagecolor="#ffffff"
     bordercolor="#666666"
     borderopacity="1.0"
     inkscape:pageshadow="2"
     inkscape:pageopacity="0.0"
     inkscape:pagecheckerboard="0"
     inkscape:document-units="mm"
     showgrid="false"
     fit-margin-top="0.3"
     fit-margin-left="0.3"
     fit-margin-right="0.3"
     fit-margin-bottom="0.3"
     inkscape:zoom="1.2810466"
     inkscape:cx="120.99482"
     inkscape:cy="238.86719"
     inkscape:window-width="1717"
     inkscape:window-height="1165"
     inkscape:window-x="468"
     inkscape:window-y="27"
     inkscape:window-maximized="0"
     inkscape:current-layer="layer1" />
  <defs
     id="defs1736">
    <pattern
       patternUnits="userSpaceOnUse"
       width="363.28644"
       height="386.82227"
       id="pattern3065">
      <path
         id="path1471"
         style="fill:#000000;fill-opacity:1;fill-rule:nonzero;stroke:none;stroke-width:1.33333"
         d="m 117.24414,13.3125 c -34.95834,0 -63.239582,9.05273 -84.843749,27.162108 C 10.801434,58.578772 0,82.599622 0,112.53711 c 0,20.79689 4.8391926,37.33205 14.521484,49.61328 9.682292,12.28124 21.604166,21.334 35.765624,27.16211 14.161459,5.82293 32.895833,11.69268 56.203122,17.60938 26.89063,7.35416 45.5306,13.89648 55.93165,19.63085 10.39583,5.73959 18.59829,13.35939 24.60351,22.85938 6.00518,9.49999 9.00586,21.51042 9.00586,36.03125 0,28.86459 -8.91732,49.30211 -26.75586,61.3125 -17.83853,12.01043 -42.89063,18.01562 -75.15625,18.01562 -13.088538,0 -29.582682,-2.51168 -49.478516,-7.52734 C 24.739583,352.2233 10.396483,347.02668 1.6152344,341.64648 v 25.81641 c 7.1718726,3.94273 19.8958336,8.15756 38.1874986,12.63672 18.28125,4.48441 35.848957,6.72266 52.703125,6.72266 40.875002,0 72.378892,-9.00975 94.519532,-27.02539 22.14062,-18.01561 33.20899,-43.15689 33.20899,-75.42774 -10e-6,-22.05207 -5.15038,-39.48308 -15.4629,-52.30078 -10.30726,-12.81774 -22.45312,-22.14061 -36.4375,-27.96875 -13.97916,-5.82293 -33.34375,-12.14646 -58.07812,-18.95899 C 88.20377,179.04689 71.620444,173.6673 60.505858,169.00586 49.391277,164.34959 40.562499,157.71355 34.015625,149.10938 c -6.541667,-8.60418 -9.8125,-20.43685 -9.8125,-35.49415 0,-23.843751 7.484374,-42.938795 22.453124,-57.27734 14.968747,-14.343761 37.958982,-21.515624 68.974611,-21.515624 13.08853,0.182286 25.13998,1.437511 36.16602,3.765625 2.32113,0.491198 4.5661,1.000913 6.74414,1.527342 l 5.77734,-21.992186 C 148.88767,14.918248 133.19658,13.3125 117.24414,13.3125 Z" />
      <path
         style="fill:#000000;fill-opacity:1;fill-rule:nonzero;stroke:none;stroke-width:1.33333"
         d="m 244.6979,33.364573 c 18.36461,0 32.63021,1.03646 42.79688,3.10938 25.625,6.541682 44.66668,18.442696 57.11459,35.718765 12.44791,17.276032 18.67707,38.619782 18.67707,64.041642 0,26.5573 -6.77084,48.96876 -20.31251,67.22917 -13.53641,18.26041 -32.03123,29.88023 -55.47915,34.85938 -10.375,2.07292 -23.1354,3.1146 -38.28125,3.1146 H 203.92708 V 33.364573 Z M 348.65622,136.54167 c 0,-22.92711 -5.16143,-41.833324 -15.48434,-56.723982 -10.32291,-14.89062 -25.23961,-24.979162 -44.74481,-30.265625 -6.01561,-1.557279 -12.7604,-2.572913 -20.22916,-3.036435 -7.46873,-0.468774 -17.22395,-0.703143 -29.26043,-0.703143 h -21.3177 V 228.98438 h 22.41146 c 11.30729,0 20.25521,-0.18218 26.84376,-0.54168 6.58854,-0.36473 12.78644,-1.21875 18.59894,-2.57292 19.70834,-4.35416 35.1719,-14.46875 46.37503,-30.34375 11.20308,-15.87499 16.80725,-35.53647 16.80725,-58.98436"
         id="path1473"
         inkscape:export-filename="C:\Users\Philipp\Documents\Python\straindesign\docs\logo.png"
         inkscape:export-xdpi="96"
         inkscape:export-ydpi="96" />
      <path
         style="fill:#000000;fill-opacity:1;fill-rule:evenodd;stroke:none;stroke-width:1.33333"
         d="m 188.43752,45.062513 c 0,-12.416693 9.81248,-22.479193 21.92186,-22.479193 12.10416,0 21.92186,10.0625 21.92186,22.479193 0,12.416656 -9.8177,22.479156 -21.92186,22.479156 -12.10938,0 -21.92186,-10.0625 -21.92186,-22.479156"
         id="path1475"
         inkscape:export-filename="C:\Users\Philipp\Documents\Python\straindesign\docs\logo.png"
         inkscape:export-xdpi="96"
         inkscape:export-ydpi="96" />
      <path
         style="color:#000000;fill:#ffffff;stroke-width:3.77953;stroke-miterlimit:8;-inkscape-stroke:none"
         d="m 210.35783,15.753335 c -15.89488,0 -28.75245,13.289311 -28.75245,29.306117 0,16.016731 12.85757,29.313487 28.75245,29.313487 15.89129,0 28.75982,-13.294829 28.75982,-29.313487 0,-16.018696 -12.86853,-29.306117 -28.75982,-29.306117 z m 0,13.663862 c 8.317,0 15.08859,6.827565 15.08859,15.642255 0,8.814614 -6.77159,15.649587 -15.08859,15.649587 -8.32384,0 -15.08859,-6.833045 -15.08859,-15.649587 0,-8.816617 6.76475,-15.642255 15.08859,-15.642255 z"
         id="path1477" />
      <path
         style="fill:#000000;fill-opacity:1;fill-rule:evenodd;stroke:none;stroke-width:1.33333"
         d="m 188.43752,241.85938 c 0,-12.41148 9.81248,-22.4792 21.92186,-22.4792 12.10416,0 21.92186,10.06772 21.92186,22.4792 0,12.41665 -9.8177,22.48437 -21.92186,22.48437 -12.10938,0 -21.92186,-10.06772 -21.92186,-22.48437"
         id="path1479"
         inkscape:export-filename="C:\Users\Philipp\Documents\Python\straindesign\docs\logo.png"
         inkscape:export-xdpi="96"
         inkscape:export-ydpi="96" />
      <path
         style="color:#000000;fill:#ffffff;stroke-width:3.77953;stroke-miterlimit:8;-inkscape-stroke:none"
         d="m 210.35783,212.54714 c -15.89684,0 -28.75245,13.30042 -28.75245,29.31348 0,16.01673 12.85561,29.31349 28.75245,29.31349 15.89325,0 28.75982,-13.29483 28.75982,-29.31349 0,-16.01499 -12.86657,-29.31348 -28.75982,-29.31348 z m 0,13.66386 c 8.31504,0 15.08859,6.84166 15.08859,15.64962 0,8.81462 -6.77355,15.64959 -15.08859,15.64959 -8.32188,0 -15.08859,-6.83304 -15.08859,-15.64959 0,-8.80985 6.76671,-15.64962 15.08859,-15.64962 z"
         id="path1481" />
      <path
         style="fill:#000000;fill-opacity:1;fill-rule:evenodd;stroke:none;stroke-width:1.33333"
         d="m 148.03645,0 42.36457,37.161449 -49.98436,15.265625 z m 0,0"
         id="path1485"
         inkscape:export-filename="C:\Users\Philipp\Documents\Python\straindesign\docs\logo.png"
         inkscape:export-xdpi="96"
         inkscape:export-ydpi="96" />
      <path
         style="fill:#ffffff;fill-opacity:1;fill-rule:evenodd;stroke:none;stroke-width:1.33333"
         d="m 239.86456,259.05729 2.12501,43.48437 -48.40101,2.36458 -2.125,-43.47915 z m 0,0"
         id="path1487"
         inkscape:export-filename="C:\Users\Philipp\Documents\Python\straindesign\docs\logo.png"
         inkscape:export-xdpi="96"
         inkscape:export-ydpi="96" />
      <path
         style="fill:#000000;fill-opacity:1;fill-rule:evenodd;stroke:none;stroke-width:1.33333"
         d="m 182.7604,309.54164 28.28126,-47.35937 22.27604,47.35937 z m 0,0"
         id="path1489"
         inkscape:export-filename="C:\Users\Philipp\Documents\Python\straindesign\docs\logo.png"
         inkscape:export-xdpi="96"
         inkscape:export-ydpi="96" />
      <path
         style="fill:#ffffff;fill-opacity:1;fill-rule:evenodd;stroke:none;stroke-width:1.33333"
         d="M 245.95833,102.82292 H 197.47917 V 62.500006 h 48.47916 z m 0,0"
         id="path1491"
         inkscape:export-filename="C:\Users\Philipp\Documents\Python\straindesign\docs\logo.png"
         inkscape:export-xdpi="96"
         inkscape:export-ydpi="96" />
      <path
         style="fill:#000000;fill-opacity:1;fill-rule:evenodd;stroke:none;stroke-width:1.33333"
         d="m 186.59896,103.61979 24.23959,-38.39584 24.23955,38.39584 z m 0,0"
         id="path1493"
         inkscape:export-filename="C:\Users\Philipp\Documents\Python\straindesign\docs\logo.png"
         inkscape:export-xdpi="96"
         inkscape:export-ydpi="96" />
      <path
         style="fill:#ffffff;fill-opacity:1;fill-rule:evenodd;stroke:none;stroke-width:1.33333"
         d="M 270.1198,263.30207 H 235.0781 V 221.3802 h 35.0417 z m 0,0"
         id="path1495"
         inkscape:export-filename="C:\Users\Philipp\Documents\Python\straindesign\docs\logo.png"
         inkscape:export-xdpi="96"
         inkscape:export-ydpi="96" />
      <path
         style="fill:#000000;fill-opacity:1;fill-rule:evenodd;stroke:none;stroke-width:1.33333"
         d="m 271.0781,250.97915 -38.40103,-16.13541 38.40103,-18.26041 z m 0,0"
         id="path1497"
         inkscape:export-filename="C:\Users\Philipp\Documents\Python\straindesign\docs\logo.png"
         inkscape:export-xdpi="96"
         inkscape:export-ydpi="96" />
    </pattern>
  </defs>
  <g
     inkscape:label="Layer 1"
     inkscape:groupmode="layer"
     id="layer1"
     transform="translate(-54.454932,-133.41765)">
    <g
       id="g4423">
      <rect
         style="fill:none;stroke:none;stroke-width:0.264583"
         width="96.120003"
         height="102.34673"
         x="54.754932"
         y="133.71777"
         id="rect3080" />
      <path
         id="path3312"
         style="fill:#000000;fill-opacity:1;fill-rule:nonzero;stroke:none;stroke-width:1.33333"
         d="M 148.03711,1.1035156 145.8457,16.181641 c -9.43919,-1.168714 -18.97211,-1.765625 -28.60156,-1.765625 -34.958336,0 -63.239584,9.052729 -84.843749,27.162109 C 10.801434,59.682289 0,83.703153 0,113.64062 c 0,20.79689 4.8391942,37.33205 14.521484,49.61329 9.682292,12.28123 21.604173,21.334 35.765625,27.16211 14.161459,5.82292 32.895852,11.69267 56.203121,17.60937 26.89063,7.35417 45.53059,13.89649 55.93165,19.63086 7.55795,4.1728 13.95551,9.33962 19.19335,15.5 -4.1e-4,-0.0645 -0.01,-0.12686 -0.01,-0.19141 0,-9.13718 4.19416,-17.37952 10.74219,-22.7832 -7.28987,-6.35117 -15.2943,-11.34461 -24.01368,-14.97852 -13.97916,-5.82289 -33.34375,-12.14646 -58.07812,-18.95898 C 88.203767,180.15041 71.620448,174.77079 60.505859,170.10938 49.391285,165.45311 40.5625,158.81706 34.015625,150.21289 c -6.541667,-8.60421 -9.8125,-20.43684 -9.8125,-35.49414 0,-23.843754 7.484374,-42.938799 22.453125,-57.277344 14.968747,-14.34376 37.958982,-21.515625 68.97461,-21.515625 9.56656,0.133153 18.57212,0.845364 27.03516,2.125 l -2.25,15.480469 49.98437,-15.265625 z M 202.02344,229.88867 c -4.06581,2.76915 -6.75391,7.52798 -6.75391,13.07617 0,8.81655 6.76601,15.64844 15.08789,15.64844 2.28465,0 4.42968,-0.55505 6.37305,-1.48633 -2.57064,-9.25172 -6.55489,-17.23821 -11.95899,-23.95507 -0.90171,-1.12134 -1.81819,-2.21536 -2.74804,-3.28321 z m 9.26172,33.39844 -27.97266,44.32227 h 10.80859 c -3.46627,17.96613 -11.71821,31.41146 -24.8457,40.25 -17.83853,12.0104 -42.89063,18.01562 -75.156249,18.01562 -13.088535,0 -29.582682,-2.51168 -49.478516,-7.52734 C 24.739583,353.32682 10.396483,348.1302 1.6152344,342.75 v 25.81641 c 7.1718724,3.94272 19.8958366,8.15759 38.1874996,12.63671 18.28125,4.48441 35.84896,6.72266 52.703125,6.72266 40.875001,0 72.378911,-9.00978 94.519531,-27.02539 16.78061,-13.65422 27.1277,-31.44866 31.18945,-53.29101 h 15.10352 z"
         transform="matrix(0.26458333,0,0,0.26458333,54.754934,133.42568)" />
      <path
         id="path3314"
         style="fill:#000000;fill-opacity:1;fill-rule:nonzero;stroke:none;stroke-width:1.33333"
         d="m 203.92773,34.46875 v 25.878906 c 1.9517,0.940605 4.13032,1.464844 6.42969,1.464844 2.63047,0 5.10577,-0.684637 7.26172,-1.898438 V 46.916016 h 7.80859 c 0.011,-0.249138 0.0195,-0.499453 0.0195,-0.751954 0,-4.713507 -1.93828,-8.85831 -5.01172,-11.695312 z m 32.77344,0 c 1.55108,3.594779 2.41602,7.552592 2.41602,11.695312 0,0.252265 -0.0132,0.501082 -0.0195,0.751954 11.96115,0.0021 21.66481,0.23648 29.09961,0.703125 7.46876,0.463521 14.21485,1.47983 20.23046,3.037109 19.5052,5.286463 34.42123,15.375005 44.74415,30.265625 10.32286,14.890658 15.48437,33.797505 15.48437,56.724605 0,23.44789 -5.60355,43.10938 -16.80664,58.98438 -11.20313,15.875 -26.66665,25.98958 -46.375,30.34375 -4.55728,1.06173 -9.36251,1.80212 -14.39649,2.25391 V 217.6875 l -38.40039,18.25977 38.40039,16.13671 v -10.42187 c 5.99467,-0.5178 11.49479,-1.25111 16.41602,-2.23438 23.44793,-4.97915 41.94405,-16.59896 55.48047,-34.85937 13.54167,-18.26041 20.3125,-40.67317 20.3125,-67.23047 0,-25.42186 -6.22987,-46.764984 -18.67773,-64.041015 C 332.16146,56.020806 313.11915,44.119807 287.49414,37.578125 277.32748,35.505205 263.06188,34.46875 244.69727,34.46875 Z m -25.86328,31.859375 -24.23828,38.396485 h 17.32812 v 109.69727 c 2.06991,-0.48758 4.21523,-0.77149 6.42969,-0.77149 2.51351,0 4.93854,0.36691 7.26172,0.99023 V 104.72461 h 17.45898 z m -0.48047,160.986325 c -2.30192,0 -4.47605,0.53882 -6.42969,1.48243 v 13.74414 h 21.5 c -0.13119,-5.23355 -2.6527,-9.73155 -6.45507,-12.45313 h -1.35352 v -0.86914 c -2.15667,-1.21562 -4.63059,-1.9043 -7.26172,-1.9043 z"
         transform="matrix(0.26458333,0,0,0.26458333,54.754934,133.42568)" />
      <path
         style="fill:#000000;fill-opacity:1;fill-rule:evenodd;stroke:none;stroke-width:0.246662"
         d="m 106.35704,145.64056 c 0,-2.29705 1.81528,-4.15859 4.05548,-4.15859 2.23923,0 4.05548,1.86154 4.05548,4.15859 0,2.29704 -1.81625,4.15858 -4.05548,4.15858 -1.50495,0 -2.81814,-0.84013 -3.51801,-2.08802 -0.34193,-0.60966 -0.53747,-1.31665 -0.53747,-2.07056"
         id="path3316"
         inkscape:export-filename="C:\Users\Philipp\Documents\Python\straindesign\docs\logo.png"
         inkscape:export-xdpi="96"
         inkscape:export-ydpi="96"
         sodipodi:nodetypes="cssssc" />
      <path
         style="fill:#000000;fill-opacity:1;fill-rule:evenodd;stroke:none;stroke-width:0.244509"
         d="m 106.39244,197.70994 c 0,-2.27604 1.79943,-4.12228 4.02008,-4.12228 2.21969,0 4.02008,1.84624 4.02008,4.12228 0,2.27699 -1.80039,4.12323 -4.02008,4.12323 -2.22065,0 -4.02008,-1.84624 -4.02008,-4.12323"
         id="path3320"
         inkscape:export-filename="C:\Users\Philipp\Documents\Python\straindesign\docs\logo.png"
         inkscape:export-xdpi="96"
         inkscape:export-ydpi="96" />
    </g>
  </g>
</svg>
