<?xml version="1.0" encoding="UTF-8" standalone="no"?>
<!-- Created with Inkscape (http://www.inkscape.org/) -->

<svg
   width="96.119537mm"
   height="102.34689mm"
   viewBox="0 0 96.119537 102.34689"
   version="1.1"
   id="svg1739"
   inkscape:version="1.1.2 (b8e25be833, 2022-02-05)"
   sodipodi:docname="logo.svg"
   xmlns:inkscape="http://www.inkscape.org/namespaces/inkscape"
   xmlns:sodipodi="http://sodipodi.sourceforge.net/DTD/sodipodi-0.dtd"
   xmlns="http://www.w3.org/2000/svg"
   xmlns:svg="http://www.w3.org/2000/svg">
  <sodipodi:namedview
     id="namedview1741"
     pagecolor="#ffffff"
     bordercolor="#666666"
     borderopacity="1.0"
     inkscape:pageshadow="2"
     inkscape:pageopacity="0.0"
     inkscape:pagecheckerboard="0"
     inkscape:document-units="mm"
     showgrid="false"
     fit-margin-top="0"
     fit-margin-left="0"
     fit-margin-right="0"
     fit-margin-bottom="0"
     inkscape:zoom="1.2810466"
     inkscape:cx="119.8239"
     inkscape:cy="363.76507"
     inkscape:window-width="2560"
     inkscape:window-height="1369"
     inkscape:window-x="-8"
     inkscape:window-y="-8"
     inkscape:window-maximized="1"
     inkscape:current-layer="layer1" />
  <defs
     id="defs1736">
    <pattern
       patternUnits="userSpaceOnUse"
       width="363.28644"
       height="386.82227"
       id="pattern3065">
      <path
         id="path1471"
         style="fill:#000000;fill-opacity:1;fill-rule:nonzero;stroke:none;stroke-width:1.33333"
         d="m 117.24414,13.3125 c -34.95834,0 -63.239582,9.05273 -84.843749,27.162108 C 10.801434,58.578772 0,82.599622 0,112.53711 c 0,20.79689 4.8391926,37.33205 14.521484,49.61328 9.682292,12.28124 21.604166,21.334 35.765624,27.16211 14.161459,5.82293 32.895833,11.69268 56.203122,17.60938 26.89063,7.35416 45.5306,13.89648 55.93165,19.63085 10.39583,5.73959 18.59829,13.35939 24.60351,22.85938 6.00518,9.49999 9.00586,21.51042 9.00586,36.03125 0,28.86459 -8.91732,49.30211 -26.75586,61.3125 -17.83853,12.01043 -42.89063,18.01562 -75.15625,18.01562 -13.088538,0 -29.582682,-2.51168 -49.478516,-7.52734 C 24.739583,352.2233 10.396483,347.02668 1.6152344,341.64648 v 25.81641 c 7.1718726,3.94273 19.8958336,8.15756 38.1874986,12.63672 18.28125,4.48441 35.848957,6.72266 52.703125,6.72266 40.875002,0 72.378892,-9.00975 94.519532,-27.02539 22.14062,-18.01561 33.20899,-43.15689 33.20899,-75.42774 -10e-6,-22.05207 -5.15038,-39.48308 -15.4629,-52.30078 -10.30726,-12.81774 -22.45312,-22.14061 -36.4375,-27.96875 -13.97916,-5.82293 -33.34375,-12.14646 -58.07812,-18.95899 C 88.20377,179.04689 71.620444,173.6673 60.505858,169.00586 49.391277,164.34959 40.562499,157.71355 34.015625,149.10938 c -6.541667,-8.60418 -9.8125,-20.43685 -9.8125,-35.49415 0,-23.843751 7.484374,-42.938795 22.453124,-57.27734 14.968747,-14.343761 37.958982,-21.515624 68.974611,-21.515624 13.08853,0.182286 25.13998,1.437511 36.16602,3.765625 2.32113,0.491198 4.5661,1.000913 6.74414,1.527342 l 5.77734,-21.992186 C 148.88767,14.918248 133.19658,13.3125 117.24414,13.3125 Z" />
      <path
         style="fill:#000000;fill-opacity:1;fill-rule:nonzero;stroke:none;stroke-width:1.33333"
         d="m 244.6979,33.364573 c 18.36461,0 32.63021,1.03646 42.79688,3.10938 25.625,6.541682 44.66668,18.442696 57.11459,35.718765 12.44791,17.276032 18.67707,38.619782 18.67707,64.041642 0,26.5573 -6.77084,48.96876 -20.31251,67.22917 -13.53641,18.26041 -32.03123,29.88023 -55.47915,34.85938 -10.375,2.07292 -23.1354,3.1146 -38.28125,3.1146 H 203.92708 V 33.364573 Z M 348.65622,136.54167 c 0,-22.92711 -5.16143,-41.833324 -15.48434,-56.723982 -10.32291,-14.89062 -25.23961,-24.979162 -44.74481,-30.265625 -6.01561,-1.557279 -12.7604,-2.572913 -20.22916,-3.036435 -7.46873,-0.468774 -17.22395,-0.703143 -29.26043,-0.703143 h -21.3177 V 228.98438 h 22.41146 c 11.30729,0 20.25521,-0.18218 26.84376,-0.54168 6.58854,-0.36473 12.78644,-1.21875 18.59894,-2.57292 19.70834,-4.35416 35.1719,-14.46875 46.37503,-30.34375 11.20308,-15.87499 16.80725,-35.53647 16.80725,-58.98436"
         id="path1473"
         inkscape:export-filename="C:\Users\Philipp\Documents\Python\straindesign\docs\logo.png"
         inkscape:export-xdpi="96"
         inkscape:export-ydpi="96" />
      <path
         style="fill:#000000;fill-opacity:1;fill-rule:evenodd;stroke:none;stroke-width:1.33333"
         d="m 188.43752,45.062513 c 0,-12.416693 9.81248,-22.479193 21.92186,-22.479193 12.10416,0 21.92186,10.0625 21.92186,22.479193 0,12.416656 -9.8177,22.479156 -21.92186,22.479156 -12.10938,0 -21.92186,-10.0625 -21.92186,-22.479156"
         id="path1475"
         inkscape:export-filename="C:\Users\Philipp\Documents\Python\straindesign\docs\logo.png"
         inkscape:export-xdpi="96"
         inkscape:export-ydpi="96" />
      <path
         style="color:#000000;fill:#ffffff;stroke-width:3.77953;stroke-miterlimit:8;-inkscape-stroke:none"
         d="m 210.35783,15.753335 c -15.89488,0 -28.75245,13.289311 -28.75245,29.306117 0,16.016731 12.85757,29.313487 28.75245,29.313487 15.89129,0 28.75982,-13.294829 28.75982,-29.313487 0,-16.018696 -12.86853,-29.306117 -28.75982,-29.306117 z m 0,13.663862 c 8.317,0 15.08859,6.827565 15.08859,15.642255 0,8.814614 -6.77159,15.649587 -15.08859,15.649587 -8.32384,0 -15.08859,-6.833045 -15.08859,-15.649587 0,-8.816617 6.76475,-15.642255 15.08859,-15.642255 z"
         id="path1477" />
      <path
         style="fill:#000000;fill-opacity:1;fill-rule:evenodd;stroke:none;stroke-width:1.33333"
         d="m 188.43752,241.85938 c 0,-12.41148 9.81248,-22.4792 21.92186,-22.4792 12.10416,0 21.92186,10.06772 21.92186,22.4792 0,12.41665 -9.8177,22.48437 -21.92186,22.48437 -12.10938,0 -21.92186,-10.06772 -21.92186,-22.48437"
         id="path1479"
         inkscape:export-filename="C:\Users\Philipp\Documents\Python\straindesign\docs\logo.png"
         inkscape:export-xdpi="96"
         inkscape:export-ydpi="96" />
      <path
         style="color:#000000;fill:#ffffff;stroke-width:3.77953;stroke-miterlimit:8;-inkscape-stroke:none"
         d="m 210.35783,212.54714 c -15.89684,0 -28.75245,13.30042 -28.75245,29.31348 0,16.01673 12.85561,29.31349 28.75245,29.31349 15.89325,0 28.75982,-13.29483 28.75982,-29.31349 0,-16.01499 -12.86657,-29.31348 -28.75982,-29.31348 z m 0,13.66386 c 8.31504,0 15.08859,6.84166 15.08859,15.64962 0,8.81462 -6.77355,15.64959 -15.08859,15.64959 -8.32188,0 -15.08859,-6.83304 -15.08859,-15.64959 0,-8.80985 6.76671,-15.64962 15.08859,-15.64962 z"
         id="path1481" />
      <path
         style="fill:#000000;fill-opacity:1;fill-rule:evenodd;stroke:none;stroke-width:1.33333"
         d="m 148.03645,0 42.36457,37.161449 -49.98436,15.265625 z m 0,0"
         id="path1485"
         inkscape:export-filename="C:\Users\Philipp\Documents\Python\straindesign\docs\logo.png"
         inkscape:export-xdpi="96"
         inkscape:export-ydpi="96" />
      <path
         style="fill:#ffffff;fill-opacity:1;fill-rule:evenodd;stroke:none;stroke-width:1.33333"
         d="m 239.86456,259.05729 2.12501,43.48437 -48.40101,2.36458 -2.125,-43.47915 z m 0,0"
         id="path1487"
         inkscape:export-filename="C:\Users\Philipp\Documents\Python\straindesign\docs\logo.png"
         inkscape:export-xdpi="96"
         inkscape:export-ydpi="96" />
      <path
         style="fill:#000000;fill-opacity:1;fill-rule:evenodd;stroke:none;stroke-width:1.33333"
         d="m 182.7604,309.54164 28.28126,-47.35937 22.27604,47.35937 z m 0,0"
         id="path1489"
         inkscape:export-filename="C:\Users\Philipp\Documents\Python\straindesign\docs\logo.png"
         inkscape:export-xdpi="96"
         inkscape:export-ydpi="96" />
      <path
         style="fill:#ffffff;fill-opacity:1;fill-rule:evenodd;stroke:none;stroke-width:1.33333"
         d="M 245.95833,102.82292 H 197.47917 V 62.500006 h 48.47916 z m 0,0"
         id="path1491"
         inkscape:export-filename="C:\Users\Philipp\Documents\Python\straindesign\docs\logo.png"
         inkscape:export-xdpi="96"
         inkscape:export-ydpi="96" />
      <path
         style="fill:#000000;fill-opacity:1;fill-rule:evenodd;stroke:none;stroke-width:1.33333"
         d="m 186.59896,103.61979 24.23959,-38.39584 24.23955,38.39584 z m 0,0"
         id="path1493"
         inkscape:export-filename="C:\Users\Philipp\Documents\Python\straindesign\docs\logo.png"
         inkscape:export-xdpi="96"
         inkscape:export-ydpi="96" />
      <path
         style="fill:#ffffff;fill-opacity:1;fill-rule:evenodd;stroke:none;stroke-width:1.33333"
         d="M 270.1198,263.30207 H 235.0781 V 221.3802 h 35.0417 z m 0,0"
         id="path1495"
         inkscape:export-filename="C:\Users\Philipp\Documents\Python\straindesign\docs\logo.png"
         inkscape:export-xdpi="96"
         inkscape:export-ydpi="96" />
      <path
         style="fill:#000000;fill-opacity:1;fill-rule:evenodd;stroke:none;stroke-width:1.33333"
         d="m 271.0781,250.97915 -38.40103,-16.13541 38.40103,-18.26041 z m 0,0"
         id="path1497"
         inkscape:export-filename="C:\Users\Philipp\Documents\Python\straindesign\docs\logo.png"
         inkscape:export-xdpi="96"
         inkscape:export-ydpi="96" />
    </pattern>
  </defs>
  <g
     inkscape:label="Layer 1"
     inkscape:groupmode="layer"
     id="layer1"
     transform="translate(-54.754934,-133.42568)">
    <g
       id="g4423">
      <rect
         style="fill:none;stroke:none;stroke-width:0.264583"
         width="96.120003"
         height="102.34673"
         x="54.754932"
         y="133.71777"
         id="rect3080" />
      <path
         id="path3312"
         style="fill:#000000;fill-opacity:1;fill-rule:nonzero;stroke:none;stroke-width:1.33333"
         d="M 148.03711 1.1035156 L 145.8457 16.181641 C 136.40651 15.012927 126.87359 14.416016 117.24414 14.416016 C 82.285804 14.416016 54.004556 23.468745 32.400391 41.578125 C 10.801434 59.682289 0 83.703153 0 113.64062 C 0 134.43751 4.8391942 150.97267 14.521484 163.25391 C 24.203776 175.53514 36.125657 184.58791 50.287109 190.41602 C 64.448568 196.23894 83.182961 202.10869 106.49023 208.02539 C 133.38086 215.37956 152.02082 221.92188 162.42188 227.65625 C 169.97983 231.82905 176.37739 236.99587 181.61523 243.15625 C 181.61482 243.09179 181.60547 243.02939 181.60547 242.96484 C 181.60547 233.82766 185.79963 225.58532 192.34766 220.18164 C 185.05779 213.83047 177.05336 208.83703 168.33398 205.20312 C 154.35482 199.38023 134.99023 193.05666 110.25586 186.24414 C 88.203767 180.15041 71.620448 174.77079 60.505859 170.10938 C 49.391285 165.45311 40.5625 158.81706 34.015625 150.21289 C 27.473958 141.60868 24.203125 129.77605 24.203125 114.71875 C 24.203125 90.874996 31.687499 71.779951 46.65625 57.441406 C 61.624997 43.097646 84.615232 35.925781 115.63086 35.925781 C 125.19742 36.058934 134.20298 36.771145 142.66602 38.050781 L 140.41602 53.53125 L 190.40039 38.265625 L 148.03711 1.1035156 z M 202.02344 229.88867 C 197.95763 232.65782 195.26953 237.41665 195.26953 242.96484 C 195.26953 251.78139 202.03554 258.61328 210.35742 258.61328 C 212.64207 258.61328 214.7871 258.05823 216.73047 257.12695 C 214.15983 247.87523 210.17558 239.88874 204.77148 233.17188 C 203.86977 232.05054 202.95329 230.95652 202.02344 229.88867 z M 211.28516 263.28711 L 183.3125 307.60938 L 194.12109 307.60938 C 190.65482 325.57551 182.40288 339.02084 169.27539 347.85938 C 151.43686 359.86978 126.38476 365.875 94.119141 365.875 C 81.030606 365.875 64.536459 363.36332 44.640625 358.34766 C 24.739583 353.32682 10.396483 348.1302 1.6152344 342.75 L 1.6152344 368.56641 C 8.7871068 372.50913 21.511071 376.724 39.802734 381.20312 C 58.083984 385.68753 75.651694 387.92578 92.505859 387.92578 C 133.38086 387.92578 164.88477 378.916 187.02539 360.90039 C 203.806 347.24617 214.15309 329.45173 218.21484 307.60938 L 233.31836 307.60938 L 211.28516 263.28711 z "
         transform="matrix(0.26458333,0,0,0.26458333,54.754934,133.42568)" />
      <path
         id="path3314"
         style="fill:#000000;fill-opacity:1;fill-rule:nonzero;stroke:none;stroke-width:1.33333"
         d="M 203.92773 34.46875 L 203.92773 60.347656 C 205.87943 61.288261 208.05805 61.8125 210.35742 61.8125 C 212.98789 61.8125 215.46319 61.127863 217.61914 59.914062 L 217.61914 46.916016 L 225.42773 46.916016 C 225.43872 46.666878 225.44727 46.416563 225.44727 46.164062 C 225.44727 41.450555 223.50899 37.305752 220.43555 34.46875 L 203.92773 34.46875 z M 236.70117 34.46875 C 238.25225 38.063529 239.11719 42.021342 239.11719 46.164062 C 239.11719 46.416327 239.104 46.665144 239.09766 46.916016 C 251.05881 46.918136 260.76247 47.152496 268.19727 47.619141 C 275.66603 48.082662 282.41212 49.098971 288.42773 50.65625 C 307.93293 55.942713 322.84896 66.031255 333.17188 80.921875 C 343.49474 95.812533 348.65625 114.71938 348.65625 137.64648 C 348.65625 161.09437 343.0527 180.75586 331.84961 196.63086 C 320.64648 212.50586 305.18296 222.62044 285.47461 226.97461 C 280.91733 228.03634 276.1121 228.77673 271.07812 229.22852 L 271.07812 217.6875 L 232.67773 235.94727 L 271.07812 252.08398 L 271.07812 241.66211 C 277.07279 241.14431 282.57291 240.411 287.49414 239.42773 C 310.94207 234.44858 329.43819 222.82877 342.97461 204.56836 C 356.51628 186.30795 363.28711 163.89519 363.28711 137.33789 C 363.28711 111.91603 357.05724 90.572906 344.60938 73.296875 C 332.16146 56.020806 313.11915 44.119807 287.49414 37.578125 C 277.32748 35.505205 263.06188 34.46875 244.69727 34.46875 L 236.70117 34.46875 z M 210.83789 66.328125 L 186.59961 104.72461 L 203.92773 104.72461 L 203.92773 214.42188 C 205.99764 213.9343 208.14296 213.65039 210.35742 213.65039 C 212.87093 213.65039 215.29596 214.0173 217.61914 214.64062 L 217.61914 104.72461 L 235.07812 104.72461 L 210.83789 66.328125 z M 210.35742 227.31445 C 208.0555 227.31445 205.88137 227.85327 203.92773 228.79688 L 203.92773 242.54102 L 225.42773 242.54102 C 225.29654 237.30747 222.77503 232.80947 218.97266 230.08789 L 217.61914 230.08789 L 217.61914 229.21875 C 215.46247 228.00313 212.98855 227.31445 210.35742 227.31445 z "
         transform="matrix(0.26458333,0,0,0.26458333,54.754934,133.42568)" />
      <path
         style="fill:#000000;fill-opacity:1;fill-rule:evenodd;stroke:none;stroke-width:0.246662"
         d="m 106.35704,145.64056 c 0,-2.29705 1.81528,-4.15859 4.05548,-4.15859 2.23923,0 4.05548,1.86154 4.05548,4.15859 0,2.29704 -1.81625,4.15858 -4.05548,4.15858 -1.50495,0 -2.81814,-0.84013 -3.51801,-2.08802 -0.34193,-0.60966 -0.53747,-1.31665 -0.53747,-2.07056"
         id="path3316"
         inkscape:export-filename="C:\Users\Philipp\Documents\Python\straindesign\docs\logo.png"
         inkscape:export-xdpi="96"
         inkscape:export-ydpi="96"
         sodipodi:nodetypes="cssssc" />
      <path
         style="fill:#000000;fill-opacity:1;fill-rule:evenodd;stroke:none;stroke-width:0.244509"
         d="m 106.39244,197.70994 c 0,-2.27604 1.79943,-4.12228 4.02008,-4.12228 2.21969,0 4.02008,1.84624 4.02008,4.12228 0,2.27699 -1.80039,4.12323 -4.02008,4.12323 -2.22065,0 -4.02008,-1.84624 -4.02008,-4.12323"
         id="path3320"
         inkscape:export-filename="C:\Users\Philipp\Documents\Python\straindesign\docs\logo.png"
         inkscape:export-xdpi="96"
         inkscape:export-ydpi="96" />
    </g>
  </g>
</svg>
